<svg xmlns="http://www.w3.org/2000/svg" viewBox="0 0 216.33 75.93"><g data-name="Capa 2"><path d="M0 0a115 115 0 00108.16 75.93A115 115 0 00216.33 0z"/><path d="M95.22 53.76a1.21 1.21 0 01.53.52 1.72 1.72 0 01.2.85 1.75 1.75 0 01-.2.87 1.26 1.26 0 01-.53.52 1.42 1.42 0 01-.7.17h-1.19a1.39 1.39 0 00.16-.81v-1.43a2.11 2.11 0 000-.52.57.57 0 00-.11-.3h1.18a1.36 1.36 0 01.69.17m-.14 2.13a1.23 1.23 0 00.2-.76c0-.67-.27-1-.8-1h-.31v2h.34a.65.65 0 00.59-.26m3 .21a.49.49 0 00.27-.12v.67h-2a1.41 1.41 0 00.15-.81v-1.41a2.11 2.11 0 000-.52.57.57 0 00-.11-.3h2v.68a.53.53 0 00-.25-.11 2.54 2.54 0 00-.41 0h-.56v.72h.17a2.12 2.12 0 00.4-.1.62.62 0 00.24-.15v.86a.39.39 0 00-.31-.09h-.49v.75h.52a3 3 0 00.44 0m.97.48h-.15a.12.12 0 00-.1 0v-.88A.53.53 0 0099 56a1.1 1.1 0 00.28.17.83.83 0 00.36.07.53.53 0 00.39-.13.38.38 0 00.14-.31.31.31 0 00-.12-.26 1.88 1.88 0 00-.38-.19h-.14a.94.94 0 01-.7-.88.77.77 0 01.3-.63 1.4 1.4 0 01.86-.23h.51a.12.12 0 00.1-.06h.05v.82a.55.55 0 00-.27-.19 1.26 1.26 0 00-.43-.08.54.54 0 00-.35.09.25.25 0 00-.11.22.27.27 0 00.12.23 2.81 2.81 0 00.41.19c.53.18.79.49.79.92a1 1 0 01-.15.54 1 1 0 01-.42.36 1.32 1.32 0 01-.6.13 2 2 0 01-.5-.08m3.96-2.94a1.26 1.26 0 01.53.52 1.72 1.72 0 01.2.85 1.75 1.75 0 01-.2.87 1.32 1.32 0 01-.53.52 1.42 1.42 0 01-.7.17h-1.19a1.39 1.39 0 00.16-.81v-1.43a3.94 3.94 0 000-.52.49.49 0 00-.12-.3h1.18a1.4 1.4 0 01.7.17m-.13 2.09a1.23 1.23 0 00.2-.76c0-.67-.27-1-.8-1h-.4v2h.34a.65.65 0 00.59-.26m3.07.25a.49.49 0 00.27-.11v.67h-2a1.31 1.31 0 00.16-.81v-1.42a2.11 2.11 0 000-.52.57.57 0 00-.11-.3h2v.68a.53.53 0 00-.25-.11 2.54 2.54 0 00-.41 0h-.56v.72h.17a2.12 2.12 0 00.4-.1.62.62 0 00.24-.15v.86a.39.39 0 00-.31-.09h-.49v.75h.52a3.09 3.09 0 00.45 0m3.09.16a.71.71 0 00.12.31h-1a.54.54 0 00.11-.3 2.64 2.64 0 000-.51v-1.18c0-.44-.06-.69-.18-.74l.74-.29h.14v2.25a3.89 3.89 0 000 .51m2.57-2.7a1.22 1.22 0 01.46.54 1.91 1.91 0 01.17.86 1.8 1.8 0 01-.19.87 1.39 1.39 0 01-.53.57 1.49 1.49 0 01-.72.19h-.62v-.78a.66.66 0 00.22.16 1 1 0 00.37.07.74.74 0 00.6-.26 1.12 1.12 0 00.24-.67 1 1 0 01-.74.29 1.07 1.07 0 01-.55-.13.88.88 0 01-.35-.34 1 1 0 01-.11-.48 1.12 1.12 0 01.11-.51.91.91 0 01.37-.41 1.14 1.14 0 01.65-.16 1.24 1.24 0 01.67.18m-.38 1.31a.72.72 0 00.25-.24 1 1 0 00-.19-.47.5.5 0 00-.4-.18.49.49 0 00-.38.14.52.52 0 00-.13.36.46.46 0 00.14.34.48.48 0 00.37.05.63.63 0 00.33-.09m3.35.39a.73.73 0 01.15.46 1 1 0 01-.14.49.94.94 0 01-.42.36 1.47 1.47 0 01-.69.14h-.51a.12.12 0 00-.1 0l-.05-.79a.48.48 0 00.27.15 1.61 1.61 0 00.44.06.61.61 0 00.37-.17.47.47 0 00.14-.32.37.37 0 00-.15-.31.61.61 0 00-.39-.12h-.22v-.45h.18a.53.53 0 00.34-.11.33.33 0 00.13-.28.27.27 0 00-.11-.23.54.54 0 00-.33-.09 1.63 1.63 0 00-.45.06.41.41 0 00-.26.15h-.05l.06-.79a.13.13 0 00.1 0h.55a1.31 1.31 0 01.85.23.75.75 0 01.27.62.77.77 0 01-.11.4.83.83 0 01-.3.26.81.81 0 01.37.26m3.22.72a1.31 1.31 0 01-.49.55 1.22 1.22 0 01-.68.19 1.3 1.3 0 01-.7-.2 1.27 1.27 0 01-.47-.55 1.94 1.94 0 01-.18-.86 1.91 1.91 0 01.18-.86 1.36 1.36 0 01.48-.55 1.23 1.23 0 01.69-.19 1.27 1.27 0 01.7.19 1.39 1.39 0 01.48.56 2.08 2.08 0 01.16.85 1.93 1.93 0 01-.17.87m-.66-.08a1.9 1.9 0 000-1.57.6.6 0 00-1 0 1.9 1.9 0 000 1.57.6.6 0 001 0m-25.29-1.27l-2.2.51 2.2.51v-1.02zm27.38 1.02l2.19-.51-2.19-.51v1.02zm-41.06-3.2a1.84 1.84 0 01-1 .46 1.51 1.51 0 01-.47 0 1.68 1.68 0 01-1.13-.82 6.91 6.91 0 01-.32-.87 1.19 1.19 0 00-.37-.64 1.28 1.28 0 00.17-.67v-.65a1.61 1.61 0 01.4-1 1.24 1.24 0 011.69-.14 1.41 1.41 0 000-.23l.87-.13.29 1.94-1 .15q-.17-1.12-.66-1a.37.37 0 00-.32.3 1.38 1.38 0 000 .65 1 1 0 00.29.63 1.18 1.18 0 00-.08.8c.08.61.3.88.64.83a.41.41 0 00.37-.37 2.54 2.54 0 000-.78l1.15-.16v.13a1.81 1.81 0 01-.46 1.66m4.27-.47l-.1-.79h.23a.26.26 0 00.12-.3.84.84 0 00-.1-.29l-1.17.13a1.13 1.13 0 000 .34q0 .27.24.24h.27l.09.79-1.78.21-.09-.79h.2c.11 0 .2-.11.26-.3a1.42 1.42 0 00.06-.21c0-.09 0-.2.05-.33a2.42 2.42 0 000-.64.42.42 0 00-.12-.27c.15 0 .27-.28.35-.7a2.48 2.48 0 00.08-.84.24.24 0 00-.19-.09h-.34l-.09-.79 2.84-.34.1.79h-.22A.41.41 0 0083 48a4.17 4.17 0 00.3.86c.17.37.33.55.47.54a.77.77 0 000 .39 2.84 2.84 0 00.21.67c.14.35.23.53.29.56a1.44 1.44 0 00.35 0l.09.79zm-.67-3.49l-.21 1.28.71-.08zm6.72-.1a2.94 2.94 0 00-.11-.77.39.39 0 00-.43-.31h-.43l.11 1.19.7-.06.08.93-.7.07.08.89a.26.26 0 00.1.16.27.27 0 00.16.07l.46-.05.08.8-2.52.23-.08-.8h.42c.09 0 .14-.14.14-.37v-.92a.5.5 0 00-.26-.39.52.52 0 00.18-.39v-.46a1.57 1.57 0 00-.11-.59q-.12-.16-.54-.12l-.07-.79 3.57-.32.17 1.91zm5.07-.38v-.65a.42.42 0 00-.22-.33.47.47 0 00-.26-.08h-.4l.08 1.17h.68l.06.94h-.68l.08 1.16h.58c.21 0 .3-.29.26-.85v-.27l.84-.06.12 1.9-3.56.24v-.8h.42c.09 0 .14-.13.15-.37v-.92a.53.53 0 00-.25-.4.49.49 0 00.19-.38 2.89 2.89 0 000-.46 1.76 1.76 0 00-.09-.59c-.08-.12-.26-.16-.54-.13l-.06-.8 3.58-.23.13 1.91zm9.44-.38v-.66a.39.39 0 00-.21-.33.51.51 0 00-.25-.1h-.4v1.17h.68v.93h-.68v1.14h.58c.21 0 .31-.29.29-.84V49a1.21 1.21 0 000-.18h.85v1.9l-3.57.08V50h.42c.1 0 .15-.13.17-.37v-.91a.54.54 0 00-.23-.41.53.53 0 00.2-.38v-.46a1.61 1.61 0 00-.08-.59c-.06-.12-.24-.18-.53-.16v-.79l3.59-.09v1.93zm5.46 2.66a1.31 1.31 0 01-.9.34 1.55 1.55 0 01-1.06-.48 1 1 0 000 .17 1.1 1.1 0 000 .18h-.88v-1.48h1a.64.64 0 00.7.66c.34 0 .52-.11.52-.35s-.12-.37-.38-.37a.31.31 0 00-.37.26.82.82 0 00-.27-.4 1 1 0 00-.32-.09.5.5 0 01-.19 0 .33.33 0 01-.13 0 1.33 1.33 0 01-.59-1.31 1.87 1.87 0 01.56-1.45 1.36 1.36 0 011-.4 1.32 1.32 0 011 .45 1.16 1.16 0 000-.29h.75v1.59h-.85a1.11 1.11 0 00-.19-.69.69.69 0 00-.49-.17c-.32 0-.48.14-.48.41a.41.41 0 00.44.46.39.39 0 00.33-.21.53.53 0 00.38.4h.17l.26.08a1.44 1.44 0 01.45.48 1.92 1.92 0 01.13.83 1.76 1.76 0 01-.53 1.39m5.88-2.6a3.32 3.32 0 01-.15.55 1 1 0 01-.38.41.82.82 0 01-.45.17h-1.09v.62a.39.39 0 00.06.25.22.22 0 00.14.13h.37v.8h-2.35v-.8c.28 0 .45 0 .51-.18a2.75 2.75 0 000-.59v-.51a.57.57 0 00-.2-.4.66.66 0 00.22-.42v-.46a4.36 4.36 0 000-.55c0-.12-.13-.18-.31-.19h-.21v-.8l2.76.07a.9.9 0 01.48.2 1 1 0 01.37.45l.16.52c.07.23.13.33.17.32a1 1 0 00-.19.46m-1.2-.86c-.06-.19-.14-.28-.22-.28h-.48v1.41h.45c.1 0 .19-.07.27-.22a1.14 1.14 0 00.09-.46 1.24 1.24 0 00-.07-.45m5.54 1v-.66a.39.39 0 00-.19-.34.44.44 0 00-.24-.12h-.4l-.03 1.12h.68v.93h-.68l-.06 1.14h.59c.21 0 .32-.26.35-.82v-.08a1 1 0 000-.19h.84l-.09 1.9-3.56-.07v-.8h.42c.1 0 .16-.11.19-.34v-.92a.53.53 0 00-.2-.42.53.53 0 00.23-.37v-.46a1.42 1.42 0 000-.59c-.06-.13-.23-.19-.52-.19v-.8l3.58.17-.01 1.91zm5.36 3.12a1.85 1.85 0 01-1.09.24 1.38 1.38 0 01-.46-.1 1.65 1.65 0 01-.93-1 5.22 5.22 0 01-.13-.91 1.26 1.26 0 00-.22-.7 1.43 1.43 0 00.31-.62c0-.06 0-.14.07-.25s.06-.23.1-.39a1.67 1.67 0 01.62-.93 1.3 1.3 0 01.84-.22 1.26 1.26 0 01.84.45 1.43 1.43 0 000-.24l.88.07-.14 2-1.05-.07c.06-.76-.08-1.15-.41-1.17a.39.39 0 00-.38.22 1.47 1.47 0 00-.17.64 1 1 0 00.15.67 1.32 1.32 0 00-.26.77c0 .61.11.92.46 1a.44.44 0 00.44-.29 2.43 2.43 0 00.15-.76l1.16.08v.13a1.83 1.83 0 01-.81 1.53m2.16.2l.08-.79h.18a.29.29 0 00.35-.18s0-.23.07-.56a4.71 4.71 0 000-.52.62.62 0 00-.17-.41.6.6 0 00.25-.39 3.86 3.86 0 00.06-.48v-.52c0-.05-.13-.21-.31-.23h-.19l.08-.79 2.31.21-.08.8h-.37c-.12 0-.2.14-.23.45v.11a.61.61 0 000 .14v.22a.72.72 0 00.17.62.64.64 0 00-.26.42s0 .18-.05.49 0 .41 0 .44c0 .22 0 .33.13.34h.38l-.08.79zm6.05.63l.1-.79h.23a.27.27 0 00.18-.27.67.67 0 000-.31l-1.16-.14a1 1 0 00-.11.32c0 .18 0 .28.18.29h.26l-.09.8-1.78-.21.09-.8h.2c.11 0 .22-.06.33-.23l.1-.19.13-.31a3.61 3.61 0 00.2-.61.46.46 0 00-.06-.29c.15 0 .33-.21.51-.6a2.49 2.49 0 00.27-.8c-.06-.08-.11-.13-.17-.13h-.33l.09-.79 2.84.33-.09.79H134a.36.36 0 00-.24.09 4.5 4.5 0 00.09.9c.08.4.19.61.34.64a.67.67 0 00-.13.37 3 3 0 00.05.71 1.43 1.43 0 00.15.6 1 1 0 00.34.08l-.09.79zm.17-3.55l-.5 1.2.71.08zm3.5 4.01l.12-.79.42.06c.12 0 .21-.14.26-.48v-.26a4.35 4.35 0 00.06-.47.55.55 0 00-.15-.47.75.75 0 00.32-.57 1.23 1.23 0 000-.13V49c0-.29 0-.44-.16-.47h-.39l.12-.79 2.39.35-.12.79h-.19q-.28 0-.36.12a2.31 2.31 0 00-.12.56c0 .23-.05.38-.05.45a.69.69 0 00.17.44s-.09.05-.18.15a.44.44 0 00-.12.22l-.1 1.18h.16a.55.55 0 00.37-.08.61.61 0 00.25-.42l.1-.69.87.13-.3 2.06zM72.14 42.08a1 1 0 01-.78-1.08v-3.69c0-2.52-.74-4-2.23-4.41l-.84-.24c-.24-.07-.43-.12-.59-.15.61-1.51 1.08-2.63 1.4-3.4s.52-1.21.59-1.33C70.4 26.5 71.17 25.94 72 26a1.32 1.32 0 01.26 0l.28.09v-3.65c-2.46-.29-3.69-.47-6.14-.88v3.92c.25-.07.45.13.61.59-.54 1.37-1 2.63-1.46 3.74s-.81 2.06-1.14 2.86v-6.1c0-1 .31-1.39.8-1.33a.54.54 0 01.22.12v-4c-3-.54-4.5-.85-7.47-1.59v4.47a2.12 2.12 0 011.7 1.29 18.79 18.79 0 01.18 3.47v2.51A4.77 4.77 0 0159 34a3.71 3.71 0 01.77 2.31c0 .52.07 1.53.07 3a31 31 0 01-.11 3.43c-.15.92-.55 1.45-1.23 1.58h-.23a1.31 1.31 0 01-.28 0v4.52c2.95-.82 4.44-1.17 7.42-1.8v-4c-.68 0-1-.46-1-1.54a5.47 5.47 0 01.59-2.17c.37-.82.7-1.23 1-1.26.7 0 1 .54 1 1.76v4.09a3.56 3.56 0 00.49 1.85c.33.53.69.77 1 .71 1.82-.34 2.73-.5 4.55-.79v-3.67a1.19 1.19 0 01-.85.06m2.16-15.8c1.09 0 1.75.32 2 .9a9.19 9.19 0 01.2 2.72c0 1.13 0 1.85-.06 2.14a2.71 2.71 0 01-.82 1.77 2.53 2.53 0 01.82 1.92v4.26c-.08 1.1-.3 1.66-.66 1.7l-1.55.18v3.62c5.33-.82 8-1.12 13.39-1.66 0-3.13 0-4.73.06-7.92l-3.18.17v1.17c0 2.39-.42 3.6-1.21 3.68l-2.19.21v-5l2.59-.14v-4.06h-2.57v-5.15h1.49a1.74 1.74 0 01.94.46 1.78 1.78 0 01.76 1.46v2.81l3.4-.06c0-3.22 0-4.83.06-8a130.21 130.21 0 01-13.5-.81v3.58m30.13 13.23a.79.79 0 01-.48-.73v-2.51a2.75 2.75 0 00-.94-2.06 3 3 0 00-1.2-.79c.6-.06 1.21-.69 1.83-1.88.19-.35.38-.72.57-1.13s.39-.83.59-1.28a1.71 1.71 0 01-.46-.81 5.83 5.83 0 00-1.91-3.72 3.72 3.72 0 00-2.45-1H89.51v3.27l.4-.06h.37c.68 0 1.07.24 1.17.73a19.66 19.66 0 010 2.25v2c-.13.92-.42 1.49-.89 1.69a2 2 0 01.82 1.45 21 21 0 01.05 2.12 10.86 10.86 0 01-.15 2.43c-.21.6-.84.91-1.9.92v3.28c3.23-.31 4.85-.46 8.1-.64V39.8a8.15 8.15 0 01-1.07 0c-.27-.17-.4-.62-.39-1.37V35.6l1.85-.07c.23 0 .5.17.79.54a1.78 1.78 0 01.43 1.14v3.17a2.62 2.62 0 00.6 1.62c.42.55.81.82 1.16.81 1.72-.07 2.58-.09 4.3-.12v-3.14a.34.34 0 01-.18 0 1.06 1.06 0 01-.53-.17M99 30.71c-.25.56-.53.86-.84.87l-2 .05v-4.74h2c.34 0 .62.23.86.7a3.38 3.38 0 01.36 1.56 4.06 4.06 0 01-.38 1.56m17.79 4.64v1.08c0 2.21-.39 3.3-1.18 3.27l-2.2-.06v-4.52l2.57.06v-3.72h-2.56v-4.63h1.49a1.82 1.82 0 011 .42 1.64 1.64 0 01.77 1.34v2.61l3.4.07v-7.7h-13.54v3.13c1.08-.05 1.75.17 2 .66a6.54 6.54 0 01.22 2.32v1.81a2.1 2.1 0 01-.81 1.47 2 2 0 01.83 1.62v3.62c-.08.94-.3 1.4-.66 1.4h-1.57v3.13c5.4 0 8.1 0 13.5.38v-7.63l-3.18-.11m6.99-11.82h-2.25v5.14h1.75c.25 0 .53-.3.85-.93a.7.7 0 010 .27 4.29 4.29 0 01-.51 1.93 3.17 3.17 0 01-1 1.3l.45 1.54q2.11-1.41 2.08-5.49a8.84 8.84 0 00-.35-2.26c-.28-1-.65-1.53-1.1-1.53m20.65 18.71h-.24c-.6-.07-1-.5-1.11-1.28 0-.24-.06-1.08-.09-2.56v-.31a3.67 3.67 0 000-.46v-.72a4.65 4.65 0 01.79-3 3.49 3.49 0 01-.82-1.92c0-.3-.06-1.06-.08-2.26a17.17 17.17 0 010-2.58c.17-.66.68-1 1.52-.91 0-1.48 0-2.2-.07-3.58-2.91.35-4.34.48-7.21.68-.29 2.58-.54 4.9-.76 6.83s-.41 3.48-.55 4.64l-.06-.15-.05-.1c-.33-3-.78-6.87-1.32-11.14-2.91.14-4.36.17-7.31.2v3.27a1.51 1.51 0 01.26 0h.24a1 1 0 011 .82c0 .21.05.92.06 2.15s0 1.81 0 1.89a2.89 2.89 0 01-.79 1.74 3.37 3.37 0 01.8 1.88v4.32c-.12.67-.47 1-1 .92h-.24l-.27-.06v3.28c2.06.2 3.09.3 5.14.53 0-1.32 0-2-.05-3.35a1.05 1.05 0 01-1.19-1.18c0-4-.06-6.09-.11-10.13 1 5.83 1.52 9 2.55 14.8l2.76.33c.91-5.45 1.36-8.59 2.25-14.63.07 4.14.11 6.31.18 10.41 0 .79-.38 1.09-1.16.93 0 1.41 0 2.1.06 3.46 2.84.38 4.26.58 7.1 1.06 0-1.43 0-2.18-.08-3.7a.7.7 0 01-.25 0M157.27 44a6.29 6.29 0 01-.31-2.46c0-1.77.22-2.88.69-3.31a9.39 9.39 0 01-.42-1 4.22 4.22 0 01-.29-1.15V31.7a4.15 4.15 0 00-1.88-3.72 3.7 3.7 0 00-2.26-.64 5.34 5.34 0 00-3.28 2 1.87 1.87 0 01-.08-.88c-1.08.09-1.62.12-2.69.19 0 2.18.06 3.3.1 5.54h2.74c.23-1.57.84-2.38 1.83-2.41s1.58.8 1.59 2.5a2.23 2.23 0 010 .63h-2.2c-2.26 0-3.87 2-4.86 5.66.23.49.36.79.41.92.73 3.8 2.08 5.75 4 6.17a2.34 2.34 0 002.82-1.43 10.85 10.85 0 01.06 1.4c2 .47 3.06.72 5.1 1.28v-4.38a1.19 1.19 0 01-1.07-.53m-5.33-.3c-1.06-.18-1.6-1-1.62-2.45s.53-2.13 1.65-2a4 4 0 011.09.15v4a1.16 1.16 0 01-1.16.31" fill="#fff"/></g></svg>