<svg xmlns="http://www.w3.org/2000/svg" viewBox="0 0 216.33 75.93"><defs><style>.cls-1{fill:#fff;}</style></defs><title>kerema-simple</title><g id="Capa_2" data-name="Capa 2"><g id="INDEX"><path d="M0,0A115,115,0,0,0,108.16,75.93,115,115,0,0,0,216.33,0Z"/><path class="cls-1" d="M95.22,53.76a1.21,1.21,0,0,1,.53.52,1.72,1.72,0,0,1,.2.85,1.75,1.75,0,0,1-.2.87,1.26,1.26,0,0,1-.53.52,1.42,1.42,0,0,1-.7.17H93.33v0a1.39,1.39,0,0,0,.16-.81V54.45a2.11,2.11,0,0,0,0-.52.57.57,0,0,0-.11-.3v0h1.18a1.36,1.36,0,0,1,.69.17m-.14,2.13a1.23,1.23,0,0,0,.2-.76c0-.67-.27-1-.8-1h-.31l0,2h.34a.65.65,0,0,0,.59-.26"/><path class="cls-1" d="M98.13,56.12A.49.49,0,0,0,98.4,56h0l0,.26,0,.41h-2v0a1.41,1.41,0,0,0,.15-.81V54.45a2.11,2.11,0,0,0,0-.52.57.57,0,0,0-.11-.3v0h2l0,.41,0,.27h0a.53.53,0,0,0-.25-.11,2.54,2.54,0,0,0-.41,0h-.56v.72l.17,0a2.12,2.12,0,0,0,.4-.1.62.62,0,0,0,.24-.15h0v.86h0a.39.39,0,0,0-.31-.09l-.32,0-.17,0v.75h.52a3,3,0,0,0,.44,0"/><path class="cls-1" d="M99.16,56.67l-.15,0a.12.12,0,0,0-.1,0h0l0-.88h0A.53.53,0,0,0,99,56a1.1,1.1,0,0,0,.28.17.83.83,0,0,0,.36.07.53.53,0,0,0,.39-.13.38.38,0,0,0,.14-.31.31.31,0,0,0-.12-.26,1.88,1.88,0,0,0-.38-.19l-.14,0a.94.94,0,0,1-.7-.88.77.77,0,0,1,.3-.63,1.4,1.4,0,0,1,.86-.23h.25l.14,0,.12,0h0a.12.12,0,0,0,.1-.06h.05l0,.82h0a.55.55,0,0,0-.27-.19,1.26,1.26,0,0,0-.43-.08.54.54,0,0,0-.35.09.25.25,0,0,0-.11.22.27.27,0,0,0,.12.23,2.81,2.81,0,0,0,.41.19c.53.18.79.49.79.92a1,1,0,0,1-.15.54,1,1,0,0,1-.42.36,1.32,1.32,0,0,1-.6.13,2,2,0,0,1-.5-.08"/><path class="cls-1" d="M103.1,53.76a1.26,1.26,0,0,1,.53.52,1.72,1.72,0,0,1,.2.85,1.75,1.75,0,0,1-.2.87,1.32,1.32,0,0,1-.53.52,1.42,1.42,0,0,1-.7.17h-1.19v0a1.39,1.39,0,0,0,.16-.81V54.45a3.94,3.94,0,0,0,0-.52.49.49,0,0,0-.12-.3v0h1.18a1.4,1.4,0,0,1,.7.17M103,55.89a1.23,1.23,0,0,0,.2-.76c0-.67-.27-1-.8-1H102v2h.34a.65.65,0,0,0,.59-.26"/><path class="cls-1" d="M106,56.12a.49.49,0,0,0,.27-.11h0l0,.26,0,.41h-2v0a1.31,1.31,0,0,0,.16-.81V54.45a2.11,2.11,0,0,0,0-.52.57.57,0,0,0-.11-.3v0h2l0,.41,0,.27h0a.53.53,0,0,0-.25-.11,2.54,2.54,0,0,0-.41,0h-.56v.72l.17,0a2.12,2.12,0,0,0,.4-.1.62.62,0,0,0,.24-.15h0v.86h0a.39.39,0,0,0-.31-.09l-.33,0-.16,0v.75h.52a3.09,3.09,0,0,0,.45,0"/><path class="cls-1" d="M109.17,56.35a.71.71,0,0,0,.12.31v0h-1v0a.54.54,0,0,0,.11-.3,2.64,2.64,0,0,0,0-.51V54.67c0-.44-.06-.69-.18-.74l0,0,.74-.29h.14v2.25a3.89,3.89,0,0,0,0,.51"/><path class="cls-1" d="M111.67,53.7a1.22,1.22,0,0,1,.46.54,1.91,1.91,0,0,1,.17.86,1.8,1.8,0,0,1-.19.87,1.39,1.39,0,0,1-.53.57,1.49,1.49,0,0,1-.72.19l-.27,0h-.17c-.1,0-.16,0-.18,0h0l0-.78h0a.66.66,0,0,0,.22.16,1,1,0,0,0,.37.07.74.74,0,0,0,.6-.26,1.12,1.12,0,0,0,.24-.67,1,1,0,0,1-.74.29,1.07,1.07,0,0,1-.55-.13.88.88,0,0,1-.35-.34,1,1,0,0,1-.11-.48,1.12,1.12,0,0,1,.11-.51.91.91,0,0,1,.37-.41,1.14,1.14,0,0,1,.65-.16,1.24,1.24,0,0,1,.67.18M111.34,55a.72.72,0,0,0,.25-.24,1,1,0,0,0-.19-.47.5.5,0,0,0-.4-.18.49.49,0,0,0-.38.14.52.52,0,0,0-.13.36.46.46,0,0,0,.14.34A.48.48,0,0,0,111,55a.63.63,0,0,0,.33-.09"/><path class="cls-1" d="M114.68,55.3a.73.73,0,0,1,.15.46,1,1,0,0,1-.14.49.94.94,0,0,1-.42.36,1.47,1.47,0,0,1-.69.14l-.35,0-.16,0h0a.12.12,0,0,0-.1,0h0l-.05-.79h0a.48.48,0,0,0,.27.15,1.61,1.61,0,0,0,.44.06A.61.61,0,0,0,114,56a.47.47,0,0,0,.14-.32.37.37,0,0,0-.15-.31.61.61,0,0,0-.39-.12l-.22,0V54.8l.18,0a.53.53,0,0,0,.34-.11.33.33,0,0,0,.13-.28.27.27,0,0,0-.11-.23.54.54,0,0,0-.33-.09,1.63,1.63,0,0,0-.45.06.41.41,0,0,0-.26.15h-.05l.06-.79h0a.13.13,0,0,0,.1,0l.19,0,.36,0a1.31,1.31,0,0,1,.85.23.75.75,0,0,1,.27.62.77.77,0,0,1-.11.4.83.83,0,0,1-.3.26.81.81,0,0,1,.37.26"/><path class="cls-1" d="M117.84,56a1.31,1.31,0,0,1-.49.55,1.22,1.22,0,0,1-.68.19,1.3,1.3,0,0,1-.7-.2,1.27,1.27,0,0,1-.47-.55,1.94,1.94,0,0,1-.18-.86,1.91,1.91,0,0,1,.18-.86,1.36,1.36,0,0,1,.48-.55,1.23,1.23,0,0,1,.69-.19,1.27,1.27,0,0,1,.7.19,1.39,1.39,0,0,1,.48.56,2.08,2.08,0,0,1,.16.85,1.93,1.93,0,0,1-.17.87m-.66-.08a1.9,1.9,0,0,0,0-1.57.6.6,0,0,0-1,0,1.9,1.9,0,0,0,0,1.57.6.6,0,0,0,1,0"/><polygon class="cls-1" points="91.89 54.65 89.69 55.16 91.89 55.67 91.89 54.65"/><polygon class="cls-1" points="119.27 55.67 121.46 55.16 119.27 54.65 119.27 55.67"/><path class="cls-1" d="M78.21,52.47a1.84,1.84,0,0,1-1,.46,1.51,1.51,0,0,1-.47,0,1.68,1.68,0,0,1-1.13-.82,6.91,6.91,0,0,1-.32-.87,1.19,1.19,0,0,0-.37-.64,1.28,1.28,0,0,0,.17-.67c0-.06,0-.14,0-.25s0-.25,0-.4a1.61,1.61,0,0,1,.4-1,1.24,1.24,0,0,1,1.69-.14,1.41,1.41,0,0,0,0-.23l.87-.13.29,1.94-1,.15q-.17-1.12-.66-1a.37.37,0,0,0-.32.3,1.38,1.38,0,0,0,0,.65,1,1,0,0,0,.29.63,1.18,1.18,0,0,0-.08.8c.08.61.3.88.64.83a.41.41,0,0,0,.37-.37,2.54,2.54,0,0,0,0-.78l1.15-.16,0,.13a1.81,1.81,0,0,1-.46,1.66"/><path class="cls-1" d="M82.54,52.09l-.1-.79h.15l.08,0a.26.26,0,0,0,.12-.3.84.84,0,0,0-.1-.29l-1.17.13a1.13,1.13,0,0,0,0,.34q0,.27.24.24l.27,0,.09.79-1.78.21-.09-.79h.2c.11,0,.2-.11.26-.3a1.42,1.42,0,0,0,.06-.21c0-.09,0-.2.05-.33a2.42,2.42,0,0,0,0-.64.42.42,0,0,0-.12-.27c.15,0,.27-.28.35-.7a2.48,2.48,0,0,0,.08-.84.24.24,0,0,0-.19-.09l-.34,0-.09-.79,2.84-.34.1.79h-.22A.41.41,0,0,0,83,48a4.17,4.17,0,0,0,.3.86c.17.37.33.55.47.54a.77.77,0,0,0,0,.39,2.84,2.84,0,0,0,.21.67c.14.35.23.53.29.56a1.44,1.44,0,0,0,.35,0l.09.79Zm-.67-3.49-.21,1.28.71-.08Z"/><path class="cls-1" d="M88.59,48.5a2.94,2.94,0,0,0-.11-.77.39.39,0,0,0-.43-.31l-.43,0,.11,1.19.7-.06.08.93-.7.07.08.89a.26.26,0,0,0,.1.16.27.27,0,0,0,.16.07l.46-.05.08.8-2.52.23-.08-.8.42,0c.09,0,.14-.14.14-.37l0-.42c0-.31,0-.48,0-.5a.5.5,0,0,0-.26-.39.52.52,0,0,0,.18-.39c0-.07,0-.22,0-.46a1.57,1.57,0,0,0-.11-.59q-.12-.16-.54-.12l-.07-.79,3.57-.32.17,1.91Z"/><path class="cls-1" d="M93.66,48.12l0-.65a.42.42,0,0,0-.22-.33.47.47,0,0,0-.26-.08l-.4,0,.08,1.17.68,0,.06.94-.68,0L93,50.33l.58,0c.21,0,.3-.29.26-.85v-.08s0-.12,0-.19l.84-.06.12,1.9-3.56.24,0-.8.42,0c.09,0,.14-.13.15-.37l0-.41c0-.32,0-.49,0-.51a.53.53,0,0,0-.25-.4.49.49,0,0,0,.19-.38,2.89,2.89,0,0,0,0-.46,1.76,1.76,0,0,0-.09-.59c-.08-.12-.26-.16-.54-.13l-.06-.8,3.58-.23.13,1.91Z"/><path class="cls-1" d="M103.1,47.74l0-.66a.39.39,0,0,0-.21-.33.51.51,0,0,0-.25-.1h-.4l0,1.17h.68l0,.93-.68,0,0,1.14h.58c.21,0,.31-.29.29-.84V49a1.21,1.21,0,0,0,0-.18l.85,0,0,1.9-3.57.08,0-.8h.42c.1,0,.15-.13.17-.37v-.41c0-.32,0-.49,0-.5a.54.54,0,0,0-.23-.41.53.53,0,0,0,.2-.38c0-.06,0-.22,0-.46a1.61,1.61,0,0,0-.08-.59c-.06-.12-.24-.18-.53-.16l0-.79,3.59-.09,0,1.93Z"/><path class="cls-1" d="M108.56,50.4a1.31,1.31,0,0,1-.9.34,1.55,1.55,0,0,1-1.06-.48,1,1,0,0,0,0,.17,1.1,1.1,0,0,0,0,.18h-.88V49.13h1a.64.64,0,0,0,.7.66c.34,0,.52-.11.52-.35s-.12-.37-.38-.37a.31.31,0,0,0-.37.26.82.82,0,0,0-.27-.4,1,1,0,0,0-.32-.09.5.5,0,0,1-.19,0,.33.33,0,0,1-.13,0,1.33,1.33,0,0,1-.59-1.31,1.87,1.87,0,0,1,.56-1.45,1.36,1.36,0,0,1,1-.4,1.32,1.32,0,0,1,1,.45,1.16,1.16,0,0,0,0-.29H109v1.59h-.85a1.11,1.11,0,0,0-.19-.69.69.69,0,0,0-.49-.17c-.32,0-.48.14-.48.41a.41.41,0,0,0,.44.46.39.39,0,0,0,.33-.21.53.53,0,0,0,.38.4l.17,0,.26.08a1.44,1.44,0,0,1,.45.48,1.92,1.92,0,0,1,.13.83,1.76,1.76,0,0,1-.53,1.39"/><path class="cls-1" d="M114.5,47.81a3.32,3.32,0,0,1-.15.55,1,1,0,0,1-.38.41.82.82,0,0,1-.45.17l-1.09,0v.62a.39.39,0,0,0,.06.25.22.22,0,0,0,.14.13H113l0,.8-2.35,0,0-.8c.28,0,.45,0,.51-.18a2.75,2.75,0,0,0,0-.59v-.51a.57.57,0,0,0-.2-.4.66.66,0,0,0,.22-.42s0-.17,0-.46a4.36,4.36,0,0,0,0-.55c0-.12-.13-.18-.31-.19h-.21l0-.8,2.76.07a.9.9,0,0,1,.48.2,1,1,0,0,1,.37.45l.16.52c.07.23.13.33.17.32a1,1,0,0,0-.19.46M113.21,47c-.06-.19-.14-.28-.22-.28h-.48l0,1.41h.45c.1,0,.19-.07.27-.22a1.14,1.14,0,0,0,.09-.46,1.24,1.24,0,0,0-.07-.45"/><path class="cls-1" d="M118.79,48l0-.66a.39.39,0,0,0-.19-.34.44.44,0,0,0-.24-.12l-.4,0L117.93,48l.68,0,0,.93-.68,0-.06,1.14.59,0c.21,0,.32-.26.35-.82v-.08a1,1,0,0,0,0-.19l.84,0-.09,1.9L116,50.81l0-.8.42,0c.1,0,.16-.11.19-.34l0-.42c0-.31,0-.48,0-.5a.53.53,0,0,0-.2-.42.53.53,0,0,0,.23-.37c0-.06,0-.21,0-.46a1.42,1.42,0,0,0,0-.59c-.06-.13-.23-.19-.52-.19l0-.8,3.58.17L119.69,48Z"/><path class="cls-1" d="M124.15,51.12a1.85,1.85,0,0,1-1.09.24,1.38,1.38,0,0,1-.46-.1,1.65,1.65,0,0,1-.93-1,5.22,5.22,0,0,1-.13-.91,1.26,1.26,0,0,0-.22-.7,1.43,1.43,0,0,0,.31-.62c0-.06,0-.14.07-.25s.06-.23.1-.39a1.67,1.67,0,0,1,.62-.93,1.3,1.3,0,0,1,.84-.22,1.26,1.26,0,0,1,.84.45,1.43,1.43,0,0,0,0-.24l.88.07-.14,2-1.05-.07c.06-.76-.08-1.15-.41-1.17a.39.39,0,0,0-.38.22,1.47,1.47,0,0,0-.17.64,1,1,0,0,0,.15.67,1.32,1.32,0,0,0-.26.77c0,.61.11.92.46,1a.44.44,0,0,0,.44-.29,2.43,2.43,0,0,0,.15-.76l1.16.08v.13a1.83,1.83,0,0,1-.81,1.53"/><path class="cls-1" d="M126.28,51.47l.08-.79.09,0h.09a.29.29,0,0,0,.35-.18s0-.23.07-.56a4.71,4.71,0,0,0,0-.52.62.62,0,0,0-.17-.41.6.6,0,0,0,.25-.39,3.86,3.86,0,0,0,.06-.48c0-.3,0-.47,0-.52s-.13-.21-.31-.23h-.19l.08-.79,2.31.21-.08.8-.37,0c-.12,0-.2.14-.23.45v.11a.61.61,0,0,0,0,.14v0s0,.05,0,.08v.14a.72.72,0,0,0,.17.62.64.64,0,0,0-.26.42s0,.18-.05.49,0,.41,0,.44c0,.22,0,.33.13.34l.38,0-.08.79Z"/><path class="cls-1" d="M132.33,52.1l.1-.79.14,0h.09a.27.27,0,0,0,.18-.27.67.67,0,0,0,0-.31l-1.16-.14a1,1,0,0,0-.11.32c0,.18,0,.28.18.29l.26,0-.09.8-1.78-.21.09-.8h.08l.12,0c.11,0,.22-.06.33-.23l.1-.19.13-.31a3.61,3.61,0,0,0,.2-.61.46.46,0,0,0-.06-.29c.15,0,.33-.21.51-.6a2.49,2.49,0,0,0,.27-.8c-.06-.08-.11-.13-.17-.13l-.33,0,.09-.79,2.84.33-.09.79-.14,0H134a.36.36,0,0,0-.24.09,4.5,4.5,0,0,0,.09.9c.08.4.19.61.34.64a.67.67,0,0,0-.13.37,3,3,0,0,0,.05.71,1.43,1.43,0,0,0,.15.6,1,1,0,0,0,.34.08l-.09.79Zm.17-3.55-.5,1.2.71.08Z"/><path class="cls-1" d="M136,52.56l.12-.79.42.06c.12,0,.21-.14.26-.48l0-.16v-.1a4.35,4.35,0,0,0,.06-.47.55.55,0,0,0-.15-.47.75.75,0,0,0,.32-.57,1.23,1.23,0,0,0,0-.13c0-.06,0-.11,0-.14l0-.12s0-.06,0-.08V49c0-.29,0-.44-.16-.47l-.39,0,.12-.79,2.39.35-.12.79-.1,0h-.09q-.28,0-.36.12a2.31,2.31,0,0,0-.12.56c0,.23-.05.38-.05.45a.69.69,0,0,0,.17.44s-.09.05-.18.15a.44.44,0,0,0-.12.22L137.92,52l.06,0,.1,0a.55.55,0,0,0,.37-.08.61.61,0,0,0,.25-.42l.1-.69.87.13-.3,2.06Z"/><path class="cls-1" d="M72.14,42.08A1,1,0,0,1,71.36,41c0-1.45,0-2.2,0-3.69,0-2.52-.74-4-2.23-4.41l-.84-.24c-.24-.07-.43-.12-.59-.15.61-1.51,1.08-2.63,1.4-3.4s.52-1.21.59-1.33C70.4,26.5,71.17,25.94,72,26a1.32,1.32,0,0,1,.26,0l.28.09c0-1.5,0-2.24,0-3.65-2.46-.29-3.69-.47-6.14-.88,0,1.51,0,2.3,0,3.92.25-.07.45.13.61.59-.54,1.37-1,2.63-1.46,3.74s-.81,2.06-1.14,2.86c0-2.48,0-3.72,0-6.1,0-1,.31-1.39.8-1.33a.54.54,0,0,1,.22.12c0-1.64,0-2.44,0-4-3-.54-4.5-.85-7.47-1.59v4.47a2.12,2.12,0,0,1,1.7,1.29A18.79,18.79,0,0,1,59.84,29c0,.67,0,1.21,0,1.61s0,.71,0,.9A4.77,4.77,0,0,1,59,34a3.71,3.71,0,0,1,.77,2.31c0,.52.07,1.53.07,3a31,31,0,0,1-.11,3.43c-.15.92-.55,1.45-1.23,1.58l-.23,0a1.31,1.31,0,0,1-.28,0v4.52c2.95-.82,4.44-1.17,7.42-1.8,0-1.55,0-2.37,0-4-.68,0-1-.46-1-1.54A5.47,5.47,0,0,1,65,39.33c.37-.82.7-1.23,1-1.26.7,0,1,.54,1,1.76,0,1.67,0,2.49,0,4.09a3.56,3.56,0,0,0,.49,1.85c.33.53.69.77,1,.71,1.82-.34,2.73-.5,4.55-.79,0-1.43,0-2.17,0-3.67a1.19,1.19,0,0,1-.85.06"/><path class="cls-1" d="M74.35,26.28c1.09,0,1.75.32,2,.9a9.19,9.19,0,0,1,.2,2.72c0,1.13,0,1.85-.06,2.14a2.71,2.71,0,0,1-.82,1.77,2.53,2.53,0,0,1,.82,1.92c0,.08,0,.88,0,2.36,0,.76,0,1.15,0,1.9-.08,1.1-.3,1.66-.66,1.7l-1.55.18c0,1.48,0,2.21,0,3.62,5.33-.82,8-1.12,13.39-1.66,0-3.13,0-4.73.06-7.92l-3.18.17c0,.33,0,.6,0,.81v.36c0,2.39-.42,3.6-1.21,3.68l-2.19.21c0-2,0-3,0-5L83.74,36c0-1.62,0-2.44,0-4.06l-2.57,0c0-2.08,0-3.12,0-5.15l1.49,0a1.74,1.74,0,0,1,.94.46,1.78,1.78,0,0,1,.76,1.46c0,1.12,0,1.68,0,2.81l3.4-.06c0-3.22,0-4.83.06-8a130.21,130.21,0,0,1-13.5-.81c0,1.39,0,2.11,0,3.58"/><path class="cls-1" d="M104.45,39.46a.79.79,0,0,1-.48-.73V36.22a2.75,2.75,0,0,0-.94-2.06,3,3,0,0,0-1.2-.79c.6-.06,1.21-.69,1.83-1.88.19-.35.38-.72.57-1.13s.39-.83.59-1.28a1.71,1.71,0,0,1-.46-.81,5.83,5.83,0,0,0-1.91-3.72,3.72,3.72,0,0,0-2.45-1c-4.19,0-6.28,0-10.49,0,0,1.3,0,2,0,3.27l.4-.06.37,0c.68,0,1.07.24,1.17.73a19.66,19.66,0,0,1,0,2.25c0,1.23,0,1.88,0,2-.13.92-.42,1.49-.89,1.69a2,2,0,0,1,.82,1.45A21,21,0,0,1,91.43,37a10.86,10.86,0,0,1-.15,2.43c-.21.6-.84.91-1.9.92,0,1.32,0,2,0,3.28,3.23-.31,4.85-.46,8.1-.64,0-1.28,0-1.91,0-3.19a8.15,8.15,0,0,1-1.07,0c-.27-.17-.4-.62-.39-1.37,0-1.13,0-1.7,0-2.83l1.85-.07c.23,0,.5.17.79.54a1.78,1.78,0,0,1,.43,1.14c0,1.27,0,1.9,0,3.17A2.62,2.62,0,0,0,99.69,42c.42.55.81.82,1.16.81,1.72-.07,2.58-.09,4.3-.12,0-1.25,0-1.88,0-3.14a.34.34,0,0,1-.18,0,1.06,1.06,0,0,1-.53-.17M99,30.71c-.25.56-.53.86-.84.87l-2,.05c0-1.89,0-2.84,0-4.74l2,0c.34,0,.62.23.86.7a3.38,3.38,0,0,1,.36,1.56A4.06,4.06,0,0,1,99,30.71"/><path class="cls-1" d="M116.79,35.35c0,.3,0,.55,0,.75s0,.28,0,.33c0,2.21-.39,3.3-1.18,3.27l-2.2-.06c0-1.81,0-2.71,0-4.52l2.57.06c0-1.49,0-2.23,0-3.72l-2.56,0c0-1.85,0-2.78,0-4.63h1.49a1.82,1.82,0,0,1,1,.42,1.64,1.64,0,0,1,.77,1.34c0,1,0,1.56,0,2.61l3.4.07,0-7.7H106.54c0,1.25,0,1.88,0,3.13,1.08-.05,1.75.17,2,.66a6.54,6.54,0,0,1,.22,2.32c0,1,0,1.57,0,1.81a2.1,2.1,0,0,1-.81,1.47,2,2,0,0,1,.83,1.62c0,.08,0,.74,0,2v1.62c-.08.94-.3,1.4-.66,1.4h-1.57v3.13c5.4,0,8.1,0,13.5.38l0-7.63-3.18-.11"/><path class="cls-1" d="M123.86,23.55h-2.25c0,2.05,0,3.08,0,5.14l1.75,0c.25,0,.53-.3.85-.93a.7.7,0,0,1,0,.27,4.29,4.29,0,0,1-.51,1.93,3.17,3.17,0,0,1-1,1.3l.45,1.54q2.11-1.41,2.08-5.49a8.84,8.84,0,0,0-.35-2.26c-.28-1-.65-1.53-1.1-1.53"/><path class="cls-1" d="M144.43,42.23l-.24,0c-.6-.07-1-.5-1.11-1.28,0-.24-.06-1.08-.09-2.56,0-.09,0-.19,0-.31a3.67,3.67,0,0,0,0-.46c0-.29,0-.43,0-.72a4.65,4.65,0,0,1,.79-3,3.49,3.49,0,0,1-.82-1.92c0-.3-.06-1.06-.08-2.26a17.17,17.17,0,0,1,0-2.58c.17-.66.68-1,1.52-.91,0-1.48,0-2.2-.07-3.58-2.91.35-4.34.48-7.21.68-.29,2.58-.54,4.9-.76,6.83s-.41,3.48-.55,4.64l-.06-.15-.05-.1c-.33-3-.78-6.87-1.32-11.14-2.91.14-4.36.17-7.31.2,0,1.3,0,2,0,3.27a1.51,1.51,0,0,1,.26,0h.24a1,1,0,0,1,1,.82c0,.21.05.92.06,2.15s0,1.81,0,1.89a2.89,2.89,0,0,1-.79,1.74,3.37,3.37,0,0,1,.8,1.88c0,.13,0,.37,0,.71s0,.8,0,1.38c0,1.28,0,2,0,2.23-.12.67-.47,1-1,.92l-.24,0-.27-.06c0,1.31,0,2,0,3.28,2.06.2,3.09.3,5.14.53,0-1.32,0-2-.05-3.35a1.05,1.05,0,0,1-1.19-1.18c0-4-.06-6.09-.11-10.13,1,5.83,1.52,9,2.55,14.8l2.76.33c.91-5.45,1.36-8.59,2.25-14.63.07,4.14.11,6.31.18,10.41,0,.79-.38,1.09-1.16.93,0,1.41,0,2.1.06,3.46,2.84.38,4.26.58,7.1,1.06,0-1.43,0-2.18-.08-3.7a.7.7,0,0,1-.25,0"/><path class="cls-1" d="M157.27,44a6.29,6.29,0,0,1-.31-2.46c0-1.77.22-2.88.69-3.31a9.39,9.39,0,0,1-.42-1,4.22,4.22,0,0,1-.29-1.15c0-1.76,0-2.64,0-4.38a4.15,4.15,0,0,0-1.88-3.72,3.7,3.7,0,0,0-2.26-.64,5.34,5.34,0,0,0-3.28,2,1.87,1.87,0,0,1-.08-.88c-1.08.09-1.62.12-2.69.19,0,2.18.06,3.3.1,5.54l2.74,0c.23-1.57.84-2.38,1.83-2.41s1.58.8,1.59,2.5a2.23,2.23,0,0,1,0,.63l-2.2,0c-2.26,0-3.87,2-4.86,5.66.23.49.36.79.41.92.73,3.8,2.08,5.75,4,6.17a2.34,2.34,0,0,0,2.82-1.43,10.85,10.85,0,0,1,.06,1.4c2,.47,3.06.72,5.1,1.28V44.53a1.19,1.19,0,0,1-1.07-.53m-5.33-.3c-1.06-.18-1.6-1-1.62-2.45s.53-2.13,1.65-2a4,4,0,0,1,1.09.15c0,1.64,0,2.45,0,4a1.16,1.16,0,0,1-1.16.31"/></g></g></svg>